<?xml version="1.0" encoding="utf-8"?>
<!-- Generator: Adobe Illustrator 26.0.3, SVG Export Plug-In . SVG Version: 6.00 Build 0)  -->
<svg version="1.1" id="Layer_1" xmlns="http://www.w3.org/2000/svg" xmlns:xlink="http://www.w3.org/1999/xlink" x="0px" y="0px"
	 viewBox="0 0 344 389.5" style="enable-background:new 0 0 344 389.5;" xml:space="preserve">
<style type="text/css">
	.st0{fill:#005EB8;}
	.st1{enable-background:new    ;}
	.st2{fill:#FFFFFF;}
	.st3{clip-path:url(#SVGID_00000128455616575587140110000009218623572733938564_);}
	.st4{fill:#FF3333;}
</style>
<rect y="146.8" class="st0" width="343.4" height="62.5"/>
<g class="st1">
	<path class="st2" d="M15.9,154.3h12.7l-3.7,18.2h15l3.7-18.2h12.7l-9.9,47.5H33.8l4.2-20.3H23l-4.2,20.3H6L15.9,154.3z"/>
</g>
<g class="st1">
	<path class="st2" d="M64.8,154.3h33.4l-1.8,9H75.5l-2.2,9.8h19.8l-2,9H71.4l-2.3,10.7h21.7l-1.8,9H54.6L64.8,154.3z"/>
</g>
<g class="st1">
	<path class="st2" d="M105.7,154.3h12.9l-7.9,38.1h19.9l-2,9.4H95.8L105.7,154.3z"/>
</g>
<g class="st1">
	<path class="st2" d="M142,154.3h12.6c10.4,0,20.9,1.1,20.9,13.1c0,11.8-9.7,17.8-21.1,17.8H148l-3.5,16.6h-12.6L142,154.3z
		 M149.9,176.2h3.4c5,0,9.6-1.8,9.6-7.4c0-4.6-3.1-5.5-6.5-5.5h-3.7L149.9,176.2z"/>
</g>
<g class="st1">
	<path class="st2" d="M208.4,184.2l-11.1-29.9h13.3l5.9,19.1l13.1-19.1h15.6l-23.9,29.9l-3.7,17.5h-12.9L208.4,184.2z"/>
</g>
<g class="st1">
	<path class="st2" d="M260,202.6c-15.4,0-21.1-9.6-21.1-19.3c0-18,9.5-29.8,27.7-29.8c15.4,0,21.1,9.6,21.1,19.4
		C287.8,190.8,278.3,202.6,260,202.6z M265.9,162.9c-9.8,0-13.9,11.4-13.9,19.4c0,6,2.2,10.9,8.8,10.9c9.8,0,13.9-11.4,13.9-19.3
		C274.7,167.9,272.5,162.9,265.9,162.9z"/>
</g>
<g class="st1">
	<path class="st2" d="M334.5,176.4c-3.1,15.1-6.8,26.2-24.1,26.2c-10.7,0-19-3.8-19-15c0-3.7,0.5-6.8,1-9l5.4-24.3h12.9l-5.7,26.9
		c-0.5,2.2-0.9,4.1-0.9,5.2c0,3.9,2.2,6.9,6.7,6.9c8.2,0,9.5-9.8,11.1-17.4l4.7-21.5h12.6L334.5,176.4z"/>
</g>
<rect class="st0" width="283.2" height="63.4"/>
<g>
	<g>
		<defs>
			<rect id="SVGID_1_" width="344" height="389.5"/>
		</defs>
		<clipPath id="SVGID_00000027570585007818465510000015456438648949971903_">
			<use xlink:href="#SVGID_1_"  style="overflow:visible;"/>
		</clipPath>
		<g style="clip-path:url(#SVGID_00000027570585007818465510000015456438648949971903_);">
			<g class="st1">
				<path class="st2" d="M12.4,8h12.5l-1.6,36.4h0.1L37.5,8h16.2l-1.1,36.4h0.1L66.3,8h12.8L58.8,55.4H42.5l1-37.3h-0.1L29,55.4
					H12.7L12.4,8z"/>
			</g>
			<g class="st1">
				<path class="st2" d="M83,8h33.4l-1.8,9H93.7l-2.2,9.8h19.8l-2,9H89.6l-2.3,10.7H109l-1.8,9H72.8L83,8z"/>
			</g>
			<g class="st1">
				<path class="st2" d="M159.6,8h15.9l7.8,47.5h-12.8l-1.3-10.1h-18.4l-5.6,10.1h-13.7L159.6,8z M166,17.8h-0.1l-10.1,18.6H168
					L166,17.8z"/>
			</g>
			<g class="st1">
				<path class="st2" d="M196.7,8h15.2c9,0.1,19.9,0.3,19.9,12.1c0,8.4-6.5,11.3-13.8,12.2v0.1c3.7,0.3,5,5.4,5.6,8.4l3.4,14.6
					h-12.6l-2.4-12.1c-1.2-6.2-1.6-6.7-7.3-6.7h-1.4l-3.8,18.8h-12.7L196.7,8z M205.1,27.7h4.3c5.5,0,9.8-1.4,9.8-5.8
					c0-3.4-2-4.8-5.8-4.9h-6.1L205.1,27.7z"/>
			</g>
			<g class="st1">
				<path class="st2" d="M241.5,8h33.4l-1.8,9h-20.9l-2.2,9.8h19.8l-2,9h-19.7l-2.3,10.7h21.7l-1.8,9h-34.3L241.5,8z"/>
			</g>
		</g>
	</g>
</g>
<rect y="73.4" class="st0" width="303.9" height="63.4"/>
<g class="st1">
	<path class="st2" d="M15.9,81.4h12.7l-3.7,18.2h15l3.7-18.2h12.7l-9.9,47.5H33.8l4.2-20.3H23l-4.2,20.3H6L15.9,81.4z"/>
</g>
<g class="st1">
	<path class="st2" d="M64.8,81.4h33.4l-1.8,9H75.5l-2.2,9.8h19.8l-2,9H71.4l-2.3,10.7h21.7l-1.8,9H54.6L64.8,81.4z"/>
</g>
<g class="st1">
	<path class="st2" d="M105.5,81.4h15.2c9,0.1,19.9,0.3,19.9,12.1c0,8.4-6.5,11.3-13.8,12.2v0.1c3.7,0.3,5,5.4,5.6,8.4l3.4,14.6
		h-12.6l-2.4-12.1c-1.2-6.2-1.6-6.7-7.3-6.7H112l-3.8,18.8H95.5L105.5,81.4z M113.9,101.1h4.3c5.5,0,9.8-1.4,9.8-5.8
		c0-3.4-2-4.8-5.8-4.9h-6.1L113.9,101.1z"/>
</g>
<g class="st1">
	<path class="st2" d="M150.2,81.4h33.4l-1.8,9h-20.9l-2.2,9.8h19.8l-2,9h-19.7l-2.3,10.7h21.7l-1.8,9H140L150.2,81.4z"/>
</g>
<g class="st1">
	<path class="st2" d="M218.6,90.8h-11.8l2-9.4h36.5l-2,9.4h-11.8l-8.1,38.1h-12.9L218.6,90.8z"/>
</g>
<g class="st1">
	<path class="st2" d="M262.9,129.7c-15.4,0-21.1-9.6-21.1-19.3c0-18,9.5-29.8,27.7-29.8c15.4,0,21.1,9.6,21.1,19.4
		C290.7,117.9,281.2,129.7,262.9,129.7z M268.8,89.9c-9.8,0-13.9,11.4-13.9,19.4c0,6,2.2,10.9,8.8,10.9c9.8,0,13.9-11.4,13.9-19.3
		C277.6,95,275.4,89.9,268.8,89.9z"/>
</g>
<rect y="242.5" class="st4" width="248.3" height="42.3"/>
<g class="st1">
	<path class="st2" d="M7.6,248.6h3.7l5.7,20.3h0.1l5.1-20.3h4.8l5.1,20.3h0.1l5.7-20.3h3.6l-7.3,23.7h-4.4l-5.2-20.7h-0.1l-5.2,20.7
		h-4.6L7.6,248.6z"/>
</g>
<g class="st1">
	<path class="st2" d="M44.8,246.8H48v10.6h0.1c1.2-1.8,3.2-2.9,5.6-2.9c4.5,0,6.5,2.8,6.5,7.4v10.3H57v-9c0-4-0.9-6-3.7-6.2
		c-3.6,0-5.3,2.9-5.3,7.1v8h-3.2V246.8z"/>
</g>
<g class="st1">
	<path class="st2" d="M66.4,256.2c1.6-1,3.5-1.6,5.7-1.6c5,0,7,2.4,7,7.2v7.2c0,2,0.1,2.9,0.1,3.4h-3v-2.2h-0.1
		c-0.7,1.1-2.4,2.7-5.4,2.7c-3.7,0-6.4-1.6-6.4-5.4c0-4.4,4.8-5.7,8.1-5.7c1.3,0,2.1,0,3.4,0.1c0-3-1.1-4.5-4.3-4.5
		c-1.8,0-3.7,0.7-5,1.8L66.4,256.2z M75.9,264.1c-0.7,0-1.4-0.1-2-0.1c-1.7,0-6,0.3-6,3.3c0,1.8,1.8,2.8,3.2,2.8
		c3.2,0,4.8-2,4.8-4.6V264.1z"/>
</g>
<g class="st1">
	<path class="st2" d="M93.7,257.6h-4.6v9.5c0,2,1.2,3.1,2.7,3.1c1,0,1.7-0.3,2.2-0.6v2.7c-0.7,0.2-1.7,0.5-2.7,0.5
		c-3.3,0-5.3-1.6-5.3-5v-10.1H82V255h3.9v-4l3.2-1v5h4.6V257.6z"/>
</g>
<g class="st1">
	<path class="st2" d="M108.2,246.8h3.2v10.6h0.1c1.2-1.8,3.2-2.9,5.6-2.9c4.5,0,6.5,2.8,6.5,7.4v10.3h-3.2v-9c0-4-0.9-6-3.7-6.2
		c-3.6,0-5.3,2.9-5.3,7.1v8h-3.2V246.8z"/>
	<path class="st2" d="M129.8,256.2c1.6-1,3.5-1.6,5.7-1.6c5,0,7,2.4,7,7.2v7.2c0,2,0.1,2.9,0.1,3.4h-3v-2.2h-0.1
		c-0.7,1.1-2.4,2.7-5.4,2.7c-3.7,0-6.4-1.6-6.4-5.4c0-4.4,4.8-5.7,8.1-5.7c1.3,0,2.1,0,3.4,0.1c0-3-1.1-4.5-4.3-4.5
		c-1.8,0-3.7,0.7-5,1.8L129.8,256.2z M139.3,264.1c-0.7,0-1.4-0.1-2-0.1c-1.7,0-6,0.3-6,3.3c0,1.8,1.8,2.8,3.2,2.8
		c3.2,0,4.8-2,4.8-4.6V264.1z"/>
</g>
<g class="st1">
	<path class="st2" d="M147.9,255h3.1v2.4h0.1c0.8-1.3,2.8-2.9,5.9-2.9c5,0,7.5,4.1,7.5,8.8c0,4.8-2.2,9.4-7.4,9.4
		c-3.1,0-4.8-1.2-5.8-2.8h-0.1v9.5h-3.2V255z M156.2,257.2c-3.5,0-5.1,3.3-5.1,6.5c0,2.9,1.5,6.5,5.1,6.5c3.4,0,4.9-3.8,4.8-6.6
		C161.1,260.5,159.7,257.2,156.2,257.2z"/>
</g>
<g class="st1">
	<path class="st2" d="M168.9,255h3.1v2.4h0.1c0.8-1.3,2.8-2.9,5.9-2.9c5,0,7.5,4.1,7.5,8.8c0,4.8-2.2,9.4-7.4,9.4
		c-3.1,0-4.8-1.2-5.8-2.8h-0.1v9.5h-3.2V255z M177.2,257.2c-3.5,0-5.1,3.3-5.1,6.5c0,2.9,1.5,6.5,5.1,6.5c3.4,0,4.9-3.8,4.8-6.6
		C182.1,260.5,180.7,257.2,177.2,257.2z"/>
</g>
<g class="st1">
	<path class="st2" d="M203.4,271.6c-1.2,0.4-2.6,1.1-5.5,1.1c-6.2,0-9-3.7-9-9.4c0-5.1,3.2-8.8,8.1-8.8c5.8,0,7.6,4.2,7.6,9.8h-12.4
		c0,3.4,2.7,5.8,5.7,5.8c2.1,0,4.6-1.1,5.3-1.7V271.6z M201.3,262c0-2.7-1.6-4.8-4.3-4.8c-3.1,0-4.4,2.6-4.7,4.8H201.3z"/>
</g>
<g class="st1">
	<path class="st2" d="M209.2,255h3.1v2.8h0.1c1-2,3.3-3.2,5.7-3.2c4.5,0,6.5,2.8,6.5,7.4v10.3h-3.2v-9c0-4-0.9-6-3.7-6.2
		c-3.6,0-5.3,2.9-5.3,7.1v8h-3.2V255z"/>
</g>
<g class="st1">
	<path class="st2" d="M229,268.9c1.3,0.8,3.1,1.2,4,1.2c1.5,0,3.3-0.6,3.3-2.5c0-3.2-7.5-2.9-7.5-7.8c0-3.6,2.7-5.3,6.1-5.3
		c1.5,0,2.7,0.3,4,0.7l-0.3,2.8c-0.7-0.4-2.6-0.9-3.4-0.9c-1.6,0-3.1,0.7-3.1,2.1c0,3.5,7.5,2.5,7.5,8.1c0,3.7-3,5.4-6.1,5.4
		c-1.6,0-3.3-0.2-4.8-1L229,268.9z"/>
</g>
<rect y="294.8" class="st4" width="248.8" height="42.3"/>
<g class="st1">
	<path class="st2" d="M11,308.6c1.6-1,3.5-1.6,5.7-1.6c5,0,7,2.4,7,7.2v7.2c0,2,0.1,2.9,0.1,3.4h-3v-2.2h-0.1
		c-0.7,1.1-2.4,2.7-5.4,2.7c-3.7,0-6.4-1.6-6.4-5.4c0-4.4,4.8-5.7,8.1-5.7c1.3,0,2.1,0,3.4,0.1c0-3-1.1-4.5-4.3-4.5
		c-1.8,0-3.7,0.7-5,1.8L11,308.6z M20.5,316.4c-0.7,0-1.4-0.1-2-0.1c-1.7,0-6,0.3-6,3.3c0,1.8,1.8,2.8,3.2,2.8c3.2,0,4.8-2,4.8-4.6
		V316.4z"/>
</g>
<g class="st1">
	<path class="st2" d="M31,309.9h-4.1v-2.6H31v-1.6c0-4.2,1.1-7,5.8-7c0.8,0,1.5,0.1,2.1,0.2l-0.1,2.6c-0.4-0.1-1-0.2-1.5-0.2
		c-2.8,0-3.1,1.8-3.1,4.1v1.9h4.6v2.6h-4.6v14.8H31V309.9z"/>
</g>
<g class="st1">
	<path class="st2" d="M52.8,309.9h-4.6v9.5c0,2,1.2,3.1,2.7,3.1c1,0,1.7-0.3,2.2-0.6v2.7c-0.7,0.2-1.7,0.5-2.7,0.5
		c-3.3,0-5.3-1.6-5.3-5v-10.1h-3.9v-2.6H45v-4l3.2-1v5h4.6V309.9z"/>
</g>
<g class="st1">
	<path class="st2" d="M69.9,324c-1.2,0.4-2.6,1.1-5.5,1.1c-6.2,0-9-3.7-9-9.4c0-5.1,3.2-8.8,8.1-8.8c5.8,0,7.6,4.2,7.6,9.8H58.9
		c0,3.4,2.7,5.8,5.7,5.8c2.1,0,4.6-1.1,5.3-1.7V324z M67.8,314.3c0-2.7-1.6-4.8-4.3-4.8c-3.1,0-4.4,2.6-4.7,4.8H67.8z"/>
</g>
<g class="st1">
	<path class="st2" d="M75.8,307.3h3v2.7h0.1c0.9-1.8,2.7-3.1,4.5-3.1c1,0,1.4,0.1,2.1,0.2v2.9c-0.6-0.2-1.2-0.3-1.8-0.3
		c-2.9,0-4.7,2.7-4.7,7.1v7.9h-3.2V307.3z"/>
</g>
<g class="st1">
	<path class="st2" d="M119,324.7h-3.7l-4.5-14.6h-0.1l-4.4,14.6h-3.7l-5.6-17.3h3.5l4,14.3h0.1l4.4-14.3h3.8l4.4,14.3h0.1l4.2-14.3
		h3.1L119,324.7z"/>
</g>
<g class="st1">
	<path class="st2" d="M141.1,324c-1.2,0.4-2.6,1.1-5.5,1.1c-6.2,0-9-3.7-9-9.4c0-5.1,3.2-8.8,8.1-8.8c5.8,0,7.6,4.2,7.6,9.8h-12.4
		c0,3.4,2.7,5.8,5.7,5.8c2.1,0,4.6-1.1,5.3-1.7V324z M139,314.3c0-2.7-1.6-4.8-4.3-4.8c-3.1,0-4.4,2.6-4.7,4.8H139z"/>
</g>
<g class="st1">
	<path class="st2" d="M157.1,307.3h3v2.7h0.1c0.9-1.8,2.7-3.1,4.5-3.1c1,0,1.4,0.1,2.1,0.2v2.9c-0.6-0.2-1.2-0.3-1.8-0.3
		c-2.9,0-4.7,2.7-4.7,7.1v7.9h-3.2V307.3z"/>
</g>
<g class="st1">
	<path class="st2" d="M183.5,324c-1.2,0.4-2.6,1.1-5.5,1.1c-6.2,0-9-3.7-9-9.4c0-5.1,3.2-8.8,8.1-8.8c5.8,0,7.6,4.2,7.6,9.8h-12.4
		c0,3.4,2.7,5.8,5.7,5.8c2.1,0,4.6-1.1,5.3-1.7V324z M181.4,314.3c0-2.7-1.6-4.8-4.3-4.8c-3.1,0-4.4,2.6-4.7,4.8H181.4z"/>
</g>
<g class="st1">
	<path class="st2" d="M189.9,308.6c1.6-1,3.5-1.6,5.7-1.6c5,0,7,2.4,7,7.2v7.2c0,2,0.1,2.9,0.1,3.4h-3v-2.2h-0.1
		c-0.7,1.1-2.4,2.7-5.4,2.7c-3.7,0-6.4-1.6-6.4-5.4c0-4.4,4.8-5.7,8.1-5.7c1.3,0,2.1,0,3.4,0.1c0-3-1.1-4.5-4.3-4.5
		c-1.8,0-3.7,0.7-5,1.8L189.9,308.6z M199.4,316.4c-0.7,0-1.4-0.1-2-0.1c-1.7,0-6,0.3-6,3.3c0,1.8,1.8,2.8,3.2,2.8
		c3.2,0,4.8-2,4.8-4.6V316.4z"/>
</g>
<g class="st1">
	<path class="st2" d="M219.2,310.3c-1.2-0.5-2.4-0.7-3.5-0.7c-3.6,0-5.6,3.2-5.6,6.5c0,3.1,1.7,6.5,5.8,6.5c1.1,0,2.4-0.3,3.4-1
		l0.2,2.9c-1.3,0.6-2.9,0.7-4,0.7c-5.2,0-8.8-4.1-8.8-9.1c0-5.3,3.5-9.1,8.8-9.1c1.3,0,3,0.3,3.9,0.7L219.2,310.3z"/>
</g>
<g class="st1">
	<path class="st2" d="M223.2,299.2h3.2v10.6h0.1c1.2-1.8,3.2-2.9,5.6-2.9c4.5,0,6.5,2.8,6.5,7.4v10.3h-3.2v-9c0-4-0.9-6-3.7-6.2
		c-3.6,0-5.3,2.9-5.3,7.1v8h-3.2V299.2z"/>
</g>
<rect y="347.2" class="st4" width="223.2" height="42.3"/>
<g class="st1">
	<path class="st2" d="M17.9,359.3c5.3,0,8.8,3.8,8.8,9.1c0,5-3.6,9.1-8.8,9.1c-5.2,0-8.8-4.1-8.8-9.1
		C9.1,363.1,12.6,359.3,17.9,359.3z M17.9,374.8c3.7,0,5.4-3.4,5.4-6.5c0-3.3-2-6.5-5.4-6.5c-3.4,0-5.4,3.2-5.4,6.5
		C12.5,371.4,14.1,374.8,17.9,374.8z"/>
</g>
<g class="st1">
	<path class="st2" d="M46.4,377h-3.1v-2.8h-0.1c-1,2-3.3,3.2-5.7,3.2c-4.5,0-6.5-2.8-6.5-7.4v-10.3h3.2v9c0,4,0.9,6,3.7,6.2
		c3.6,0,5.3-2.9,5.3-7.1v-8h3.2V377z"/>
</g>
<g class="st1">
	<path class="st2" d="M61.3,362.3h-4.6v9.5c0,2,1.2,3.1,2.7,3.1c1,0,1.7-0.3,2.2-0.6v2.7c-0.7,0.2-1.7,0.5-2.7,0.5
		c-3.3,0-5.3-1.6-5.3-5v-10.1h-3.9v-2.6h3.9v-4l3.2-1v5h4.6V362.3z"/>
</g>
<g class="st1">
	<path class="st2" d="M77.9,362.3h-4.1v-2.6h4.1v-1.6c0-4.2,1.1-7,5.8-7c0.8,0,1.5,0.1,2.1,0.2l-0.1,2.6c-0.4-0.1-1-0.2-1.5-0.2
		c-2.8,0-3.1,1.8-3.1,4.1v1.9h4.6v2.6h-4.6V377h-3.2V362.3z"/>
</g>
<g class="st1">
	<path class="st2" d="M96.6,359.3c5.3,0,8.8,3.8,8.8,9.1c0,5-3.6,9.1-8.8,9.1c-5.2,0-8.8-4.1-8.8-9.1
		C87.8,363.1,91.3,359.3,96.6,359.3z M96.6,374.8c3.7,0,5.4-3.4,5.4-6.5c0-3.3-2-6.5-5.4-6.5c-3.4,0-5.4,3.2-5.4,6.5
		C91.2,371.4,92.8,374.8,96.6,374.8z"/>
</g>
<g class="st1">
	<path class="st2" d="M109.9,359.7h3v2.7h0.1c0.9-1.8,2.7-3.1,4.5-3.1c1,0,1.4,0.1,2.1,0.2v2.9c-0.6-0.2-1.2-0.3-1.8-0.3
		c-2.9,0-4.7,2.7-4.7,7.1v7.9h-3.2V359.7z"/>
</g>
<g class="st1">
	<path class="st2" d="M133.6,351.5h3.2v10.6h0.1c1.2-1.8,3.2-2.9,5.6-2.9c4.5,0,6.5,2.8,6.5,7.4V377h-3.2v-9c0-4-0.9-6-3.7-6.2
		c-3.6,0-5.3,2.9-5.3,7.1v8h-3.2V351.5z"/>
</g>
<g class="st1">
	<path class="st2" d="M167.8,376.3c-1.2,0.4-2.6,1.1-5.5,1.1c-6.2,0-9-3.7-9-9.4c0-5.1,3.2-8.8,8.1-8.8c5.8,0,7.6,4.2,7.6,9.8h-12.4
		c0,3.4,2.7,5.8,5.7,5.8c2.1,0,4.6-1.1,5.3-1.7V376.3z M165.7,366.7c0-2.7-1.6-4.8-4.3-4.8c-3.1,0-4.4,2.6-4.7,4.8H165.7z"/>
</g>
<g class="st1">
	<path class="st2" d="M173.8,351.5h3.2V377h-3.2V351.5z"/>
</g>
<g class="st1">
	<path class="st2" d="M182.6,359.7h3.1v2.4h0.1c0.8-1.3,2.8-2.9,5.9-2.9c5,0,7.5,4.1,7.5,8.8c0,4.8-2.2,9.4-7.4,9.4
		c-3.1,0-4.8-1.2-5.8-2.8h-0.1v9.5h-3.2V359.7z M190.9,361.9c-3.5,0-5.1,3.3-5.1,6.5c0,2.9,1.5,6.5,5.1,6.5c3.4,0,4.9-3.8,4.8-6.6
		C195.8,365.2,194.4,361.9,190.9,361.9z"/>
</g>
<g class="st1">
	<path class="st2" d="M205.5,369.6c0-2.2,0.5-3.2,2.1-5.1c1.2-1.4,2.9-3.1,2.9-5.3c0-2.4-2-3.4-4.1-3.4c-2.2,0-3.9,0.5-5,1.4
		l-0.2-3.2c1.5-0.6,3.4-1.1,5.6-1.1c3.7,0,7.3,2.1,7.3,6.2c0,3.6-2.8,5.4-4.7,8.2c-0.5,0.8-0.7,1.5-0.7,2.5v0.6h-3.2V369.6z
		 M205.2,373.2h3.8v3.8h-3.8V373.2z"/>
</g>
</svg>
