<?xml version="1.0" encoding="utf-8"?>
<!-- Generator: Adobe Illustrator 26.0.3, SVG Export Plug-In . SVG Version: 6.00 Build 0)  -->
<svg version="1.1" id="Layer_1" xmlns="http://www.w3.org/2000/svg" xmlns:xlink="http://www.w3.org/1999/xlink" x="0px" y="0px"
	 viewBox="0 0 1449 960" style="enable-background:new 0 0 1449 960;" xml:space="preserve">
<style type="text/css">
	.st0{fill:#FFFFFF;}
</style>
<path class="st0" d="M1324.9,639H123.1C98.7,639,79,658.7,79,683.1V835c0,24.3,19.7,44.1,44.1,44.1H1325c24.3,0,44.1-19.7,44.1-44.1
	V683.1C1369,658.7,1349.3,639,1324.9,639z M1349,834.9c0,13.3-10.8,24.1-24.1,24.1H123.1c-13.3,0-24.1-10.8-24.1-24.1V683.1
	c0-13.3,10.8-24.1,24.1-24.1H1325c13.3,0,24.1,10.8,24.1,24.1L1349,834.9L1349,834.9z M300.4,776c0,13.1-10.4,19.1-21.4,19.1
	c-5.8,0-11.6-0.6-16.8-3.4l0.6-10.1c4.4,2.9,10.8,4.3,14,4.3c5.2,0,11.5-2.2,11.5-8.8c0-11.2-26.5-10.2-26.5-27.4
	c0-12.7,9.5-18.8,21.6-18.8c5.3,0,9.6,1.1,14,2.4l-1,9.8c-2.5-1.6-9.2-3.1-11.9-3.1c-5.8,0-10.8,2.4-10.8,7.4
	C273.8,760,300.4,756.4,300.4,776z M343.4,731c-10.8,0-17.8,5.5-20.8,10.1h-0.2v-8.6h-10.8v86.4h11.3v-33.6h0.2
	c3.5,5.6,9.6,9.8,20.4,9.8c18.5,0,26.3-16.3,26.3-33.1C369.8,745.5,361.2,731,343.4,731z M340.9,785.9c-12.7,0-18-12.6-18-22.8
	c0-11.4,5.9-23,18.1-23s17,11.6,16.8,22.7C358.1,772.4,353,785.9,340.9,785.9z M429.8,756.3c0-16.7-7.1-25.3-24.6-25.3
	c-7.8,0-14.5,2.4-20.2,5.8l0.6,9.6c4.6-3.8,11.4-6.2,17.8-6.2c11.3,0,15.1,5.4,15.1,16c-4.4-0.2-7.6-0.2-12-0.2
	c-11.6,0-28.4,4.8-28.4,20.2c0,13.3,9.2,19.1,22.4,19.1c10.3,0,16.3-5.6,19-9.4h0.2v7.9h10.6c-0.2-1.8-0.5-5-0.5-12V756.3z
	 M418.6,769.8c0,9.1-5.9,16.1-17,16.1c-5.2,0-11.4-3.5-11.4-10c0-10.8,15.1-11.8,21.2-11.8c2.4,0,4.8,0.2,7.2,0.2L418.6,769.8
	L418.6,769.8z M485.9,782.4l0.8,10.1c-4.7,2.2-10.1,2.5-14.2,2.5c-18.5,0-31.2-14.5-31.2-32c0-18.6,12.5-32,31.2-32
	c4.6,0,10.4,1.1,13.7,2.4l-1,9.4c-4.3-1.8-8.6-2.6-12.2-2.6c-12.6,0-19.7,11.3-19.7,22.9c0,10.9,5.9,22.9,20.4,22.9
	C477.6,785.9,482.4,784.7,485.9,782.4z M520.5,731c-17.3,0-28.7,12.8-28.7,31c0,19.9,10,33.1,31.7,33.1c10.1,0,15-2.4,19.3-4v-11.3
	c-2.8,2.3-11.4,6.1-18.8,6.1c-10.7,0-20.2-8.3-20.2-20.4h43.7C547.5,745.8,540.9,731,520.5,731z M503.8,757.1
	c0.8-7.9,5.4-17,16.4-17c9.7,0,15.2,7.7,15.2,17H503.8z M627.8,731c-10.7,0-16.8,4.2-20.3,9.8h-0.2v-37.2H596v90h10.8V785h0.2
	c3,4.6,10,10.1,20.9,10.1c18.5,0,26.3-16.3,26.3-33.1C654.2,745.5,645.6,731,627.8,731z M625.3,785.9c-12.7,0-18-12.6-18-22.8
	c0-11.4,5.9-23,18.1-23s17,11.6,16.8,22.7C642.4,772.4,637.4,785.9,625.3,785.9z M714.2,756.3c0-16.7-7.1-25.3-24.6-25.3
	c-7.8,0-14.5,2.4-20.2,5.8l0.6,9.6c4.6-3.8,11.4-6.2,17.8-6.2c11.3,0,15.1,5.4,15.1,16c-4.4-0.2-7.6-0.2-12-0.2
	c-11.6,0-28.4,4.8-28.4,20.2c0,13.3,9.2,19.1,22.4,19.1c10.3,0,16.3-5.6,19-9.4h0.2v7.9h10.6c-0.2-1.8-0.5-5-0.5-12L714.2,756.3
	L714.2,756.3z M702.9,769.8c0,9.1-5.9,16.1-17,16.1c-5.2,0-11.4-3.5-11.4-10c0-10.8,15.1-11.8,21.2-11.8c2.4,0,4.8,0.2,7.2,0.2
	V769.8z M756.9,731c3.4,0,5,0.4,7.4,0.8v10.1c-2-0.8-4.3-1.1-6.2-1.1c-10.1,0-16.7,9.6-16.7,25v27.8h-11.3v-61.2h10.6v9.5h0.2
	C743.9,735.5,750.4,731,756.9,731z M806.2,770.6h60.7v10.6h-60.7V770.6z M806.2,745.4h60.7V756h-60.7V745.4z M1003.2,754.4v39.2
	h-11.3v-36.5c0-7.6-1.8-17-10.9-17c-11.5,0-16.1,11.3-16.1,22.7v30.8h-11.3v-36.5c0-7.6-1.8-17-10.9-17c-11.5,0-16.1,11.3-16.1,22.7
	v30.8h-11.3v-61.2h10.6v8.9h0.2c4.3-7.1,10.4-10.3,19.4-10.3c7.1,0,14.2,3.6,17.4,11.9c4.2-8.8,13.4-11.9,19-11.9
	C997.6,731,1003.2,741,1003.2,754.4z M1061.7,732.4h11.3v61.2h-10.9v-9.7h-0.2c-3.4,7-11.5,11.2-20,11.2c-15.8,0-22.9-9.8-22.9-26.3
	v-36.4h11.3v31.7c0,14.3,3.1,21.2,13,21.8c12.8,0,18.6-10.3,18.6-25.2v-28.3H1061.7z M1116.1,785.9c3.5,0,6-1.1,7.7-2.2v9.6
	c-2.5,0.7-6,1.7-9.6,1.7c-11.6,0-18.8-5.5-18.8-17.8v-35.8h-13.8v-9.1h13.8v-14.2l11.3-3.6v17.8h16.2v9.1h-16.2V775
	C1106.6,782.1,1110.9,785.9,1116.1,785.9z M1157.7,731c-17.3,0-28.7,12.8-28.7,31c0,19.9,10,33.1,31.7,33.1c10.1,0,15-2.4,19.3-4
	v-11.3c-2.8,2.3-11.4,6.1-18.8,6.1c-10.7,0-20.2-8.3-20.2-20.4h43.7C1184.7,745.8,1178.1,731,1157.7,731z M1141,757.1
	c0.8-7.9,5.4-17,16.4-17c9.7,0,15.2,7.7,15.2,17H1141z M403.1,319H555c24.3,0,44.1-19.7,44.1-44.1V123.1c0-24.3-19.7-44.1-44.1-44.1
	H403.1c-24.4,0-44.1,19.7-44.1,44.1V275C359,299.3,378.7,319,403.1,319z M379,123.1c0-13.3,10.8-24.1,24.1-24.1H555
	c13.3,0,24.1,10.8,24.1,24.1V275c0,13.3-10.8,24.1-24.1,24.1H403.1c-13.3,0-24.1-10.8-24.1-24.1V123.1z M442.4,240.9l-22.2-83.8
	h17.6l15.6,67h0.2l14.3-67h22.8l14.8,67h0.2l15.7-67h16.3L516,240.9h-21.6l-15.1-67H479l-14.9,67H442.4z M123.1,599H275
	c24.3,0,44.1-19.7,44.1-44.1V403.1c0-24.3-19.7-44.1-44.1-44.1H123.1C98.7,359,79,378.7,79,403.1V555C79,579.3,98.7,599,123.1,599z
	 M99,403.1c0-13.3,10.8-24.1,24.1-24.1H275c13.3,0,24.1,10.8,24.1,24.1V555c0,13.3-10.8,24.1-24.1,24.1H123.1
	C109.8,579,99,568.2,99,554.9V403.1z M181.5,501.7h34l7.2,19.2h18.6l-32.9-83.8h-19l-32.6,83.8h17.4L181.5,501.7z M198.4,453.9h0.2
	l12.1,34.6h-24.5L198.4,453.9z M403.1,599H555c24.3,0,44.1-19.7,44.1-44.1V403.1c0-24.3-19.7-44.1-44.1-44.1H403.1
	c-24.3,0-44.1,19.7-44.1,44.1V555C359,579.3,378.7,599,403.1,599z M379,403.1c0-13.3,10.8-24.1,24.1-24.1H555
	c13.3,0,24.1,10.8,24.1,24.1V555c0,13.3-10.8,24.1-24.1,24.1H403.1c-13.3,0-24.1-10.8-24.1-24.1V403.1z M451.9,461.2
	c0-18.7,14.5-25.6,29.3-25.6c7.2,0,13.9,1,20,3l-1.6,13.8c-5.3-2.3-11.2-3.6-17-3.6s-13.2,2.5-13.2,11.6c0,14.5,36.7,8.4,36.7,36.5
	c0,18.4-14.5,25.3-31.4,25.3c-9.1,0-13.2-1.2-21.5-3.2l1.6-15.1c5.8,3.1,12.4,5.2,19,5.2c6.4,0,14.9-3.2,14.9-10.8
	C488.6,482.4,451.9,489,451.9,461.2z M683.1,599H835c24.3,0,44.1-19.7,44.1-44.1V403.1c0-24.3-19.7-44.1-44.1-44.1H683.1
	c-24.3,0-44.1,19.7-44.1,44.1V555C639,579.3,658.7,599,683.1,599z M659,403.1c0-13.3,10.8-24.1,24.1-24.1H835
	c13.3,0,24.1,10.8,24.1,24.1V555c0,13.3-10.8,24.1-24.1,24.1H683.1c-13.3,0-24.1-10.8-24.1-24.1V403.1z M794.6,479
	c0-33.2-22.7-41.9-48.4-41.9h-22.9v83.8h22.9C772,520.9,794.6,512.2,794.6,479z M740.2,450.3h9.4c14,0,27.6,10.4,27.6,28.7
	s-13.6,28.7-27.6,28.7h-9.4V450.3z M1179,79.5V79h-14.8l0,0h-5.2v0.1c-109.1,2.7-197,90.8-199.6,199.9H959v20h0.4v95.2
	c0,113.1,91.7,204.8,204.8,204.8l0,0c113.1,0,204.8-91.7,204.8-204.8V283.8C1369,175.7,1285.2,87.1,1179,79.5z M1033.5,153.1
	c33.7-33.7,78.1-52.8,125.5-54V279H979.5C980.7,231.4,999.8,186.9,1033.5,153.1z M1349,394.2c0,49.4-19.2,95.8-54.1,130.7
	s-81.3,54.1-130.7,54.1c-49.4,0-95.8-19.2-130.7-54.1c-34.9-34.9-54.1-81.3-54.1-130.7V299H1179V99.6c43.8,3.5,84.5,22.1,115.8,53.5
	c34.9,34.9,54.1,81.3,54.1,130.7L1349,394.2L1349,394.2z"/>
</svg>
