<?xml version="1.0" encoding="utf-8"?>
<!-- Generator: Adobe Illustrator 26.5.0, SVG Export Plug-In . SVG Version: 6.00 Build 0)  -->
<svg version="1.1" id="Layer_1" xmlns="http://www.w3.org/2000/svg" xmlns:xlink="http://www.w3.org/1999/xlink" x="0px" y="0px"
	 viewBox="0 0 1561.5 800" style="enable-background:new 0 0 1561.5 800;" xml:space="preserve">
<style type="text/css">
	.st0{fill:#FFFFFF;}
</style>
<path class="st0" d="M1517.4,570c18.8,0,34.1,15.3,34.1,34.1V756c0,18.8-15.3,34.1-34.1,34.1H315.6c-18.8-0.1-34.1-15.4-34.1-34.2
	V604.1c0-18.8,15.3-34.1,34.1-34.1H1517.4 M1517.4,560H315.6c-24.4,0-44.1,19.7-44.1,44.1V756c0,24.3,19.7,44,44.1,44h1201.9
	c24.3,0,44.1-19.7,44.1-44.1V604.1C1561.5,579.7,1541.8,560,1517.4,560L1517.4,560z M388.6,695c3.7,2.4,9,3.6,11.7,3.6
	c4.3,0,9.6-1.8,9.6-7.3c0-9.3-22.1-8.5-22.1-22.8c0-10.6,7.9-15.7,18-15.7c4.4,0,8,0.9,11.7,2l-0.8,8.2c-2.1-1.3-7.7-2.6-9.9-2.6
	c-4.8,0-9,2-9,6.2c0,10.4,22.1,7.4,22.1,23.7c0,10.9-8.7,15.9-17.8,15.9c-4.8,0-9.7-0.5-14-2.8L388.6,695z M431.8,654h9v7.2h0.2
	c2.5-3.8,8.3-8.4,17.3-8.4c14.8,0,22,12.1,22,25.8c0,14-6.5,27.6-21.9,27.6c-9,0-14.1-3.5-17-8.2h-0.2v28h-9.4V654L431.8,654z
	 M456.3,660.4c-10.2,0-15.1,9.7-15.1,19.2c0,8.5,4.4,19,15,19c10.1,0,14.3-11.3,14.1-19.3C470.5,670.1,466.5,660.4,456.3,660.4z
	 M495.5,657.6c4.7-2.8,10.3-4.8,16.8-4.8c14.6,0,20.5,7.2,20.5,21.1V695c0,5.8,0.2,8.5,0.4,10h-8.8v-6.6h-0.2
	c-2.2,3.1-7.2,7.8-15.8,7.8c-11,0-18.7-4.8-18.7-15.9c0-12.8,14-16.8,23.7-16.8c3.7,0,6.3,0,10,0.2c0-8.8-3.2-13.3-12.6-13.3
	c-5.3,0-11,2-14.8,5.2L495.5,657.6z M523.4,680.7c-2,0-4-0.2-6-0.2c-5.1,0-17.7,0.8-17.7,9.8c0,5.4,5.2,8.3,9.5,8.3
	c9.3,0,14.2-5.8,14.2-13.4V680.7z M581.5,662.6c-3.6-1.5-7.2-2.2-10.2-2.2c-10.5,0-16.4,9.4-16.4,19.1c0,9.1,4.9,19.1,17,19.1
	c3.2,0,7.2-1,10.1-2.9l0.7,8.4c-3.9,1.8-8.4,2.1-11.8,2.1c-15.4,0-26-12.1-26-26.7c0-15.5,10.4-26.7,26-26.7c3.8,0,8.7,0.9,11.4,2
	L581.5,662.6z M632,702.9c-3.6,1.3-7.7,3.3-16.1,3.3c-18.1,0-26.4-11-26.4-27.6c0-15.1,9.5-25.8,23.9-25.8c17,0,22.5,12.4,22.5,28.8
	h-36.4c0,10.1,7.9,17,16.8,17c6.2,0,13.4-3.2,15.7-5.1V702.9z M625.9,674.6c0-7.8-4.6-14.2-12.7-14.2c-9.2,0-13,7.6-13.7,14.2H625.9
	z M681.3,630h9.4v31h0.2c2.9-4.7,8-8.2,16.9-8.2c14.8,0,22,12.1,22,25.8c0,14-6.5,27.6-21.9,27.6c-9.1,0-14.9-4.6-17.4-8.4h-0.2v7.2
	h-9V630z M705.8,660.4c-10.2,0-15.1,9.7-15.1,19.2c0,8.5,4.4,19,15,19c10.1,0,14.3-11.3,14.1-19.3C720,670.1,716,660.4,705.8,660.4z
	 M745,657.6c4.7-2.8,10.3-4.8,16.8-4.8c14.6,0,20.5,7.2,20.5,21.1V695c0,5.8,0.2,8.5,0.4,10h-8.8v-6.6h-0.2
	c-2.2,3.1-7.2,7.8-15.8,7.8c-11,0-18.7-4.8-18.7-15.9c0-12.8,14-16.8,23.7-16.8c3.7,0,6.3,0,10,0.2c0-8.8-3.2-13.3-12.6-13.3
	c-5.3,0-11,2-14.8,5.2L745,657.6z M772.9,680.7c-2,0-4-0.2-6-0.2c-5.1,0-17.7,0.8-17.7,9.8c0,5.4,5.2,8.3,9.5,8.3
	c9.3,0,14.2-5.8,14.2-13.4V680.7z M798,654h8.8v7.9h0.2c2.5-5.3,7.9-9.1,13.3-9.1c2.8,0,4.2,0.3,6.2,0.7v8.4
	c-1.7-0.7-3.6-0.9-5.2-0.9c-8.4,0-13.9,8-13.9,20.8V705H798L798,654L798,654z M866.4,664.8H917v8.8h-50.6V664.8z M866.4,685.8H917
	v8.8h-50.6V685.8z M962.5,654h9v7.2h0.2c2.5-3.8,8.3-8.4,17.3-8.4c14.8,0,22,12.1,22,25.8c0,14-6.5,27.6-21.9,27.6
	c-9,0-14.1-3.5-17-8.2h-0.2v28h-9.4L962.5,654L962.5,654z M987,660.4c-10.2,0-15.1,9.7-15.1,19.2c0,8.5,4.4,19,15,19
	c10.1,0,14.3-11.3,14.1-19.3C1001.2,670.1,997.2,660.4,987,660.4z M1025,630h9.4v75h-9.4V630z M1053.2,657.6
	c4.7-2.8,10.3-4.8,16.8-4.8c14.6,0,20.5,7.2,20.5,21.1V695c0,5.8,0.2,8.5,0.4,10h-8.8v-6.6h-0.2c-2.2,3.1-7.2,7.8-15.8,7.8
	c-11,0-18.7-4.8-18.7-15.9c0-12.8,14-16.8,23.7-16.8c3.7,0,6.3,0,10,0.2c0-8.8-3.2-13.3-12.6-13.3c-5.3,0-11,2-14.8,5.2
	L1053.2,657.6z M1081.1,680.7c-2,0-4-0.2-6-0.2c-5.1,0-17.7,0.8-17.7,9.8c0,5.4,5.2,8.3,9.5,8.3c9.3,0,14.2-5.8,14.2-13.4V680.7z
	 M1101.7,718.8c1.2,0.4,2.8,0.8,4.4,0.8c8.4,0,11.2-11.6,11.2-12.6c0-1.1-1.2-3.7-1.8-5.4l-17.3-47.6h10.3l13.7,42.2h0.2l14-42.2
	h9.5l-18.8,52.1c-3.5,9.8-7.2,21.1-19.6,21.1c-3,0-4.7-0.4-6.4-0.7L1101.7,718.8z M1168.9,634h8.8l-24,72.2h-8.8L1168.9,634z
	 M1182.6,654h9v7.2h0.2c2.5-3.8,8.3-8.4,17.3-8.4c14.8,0,22,12.1,22,25.8c0,14-6.5,27.6-21.9,27.6c-9,0-14.1-3.5-17-8.2h-0.2v28
	h-9.4V654L1182.6,654z M1207.1,660.4c-10.2,0-15.1,9.7-15.1,19.2c0,8.5,4.4,19,15,19c10.1,0,14.3-11.3,14.1-19.3
	C1221.3,670.1,1217.3,660.4,1207.1,660.4z M1246.3,657.6c4.7-2.8,10.3-4.8,16.8-4.8c14.6,0,20.5,7.2,20.5,21.1V695
	c0,5.8,0.2,8.5,0.4,10h-8.8v-6.6h-0.2c-2.2,3.1-7.2,7.8-15.8,7.8c-11,0-18.7-4.8-18.7-15.9c0-12.8,14-16.8,23.7-16.8
	c3.7,0,6.3,0,10,0.2c0-8.8-3.2-13.3-12.6-13.3c-5.3,0-11,2-14.8,5.2L1246.3,657.6z M1274.2,680.7c-2,0-4-0.2-6-0.2
	c-5.1,0-17.7,0.8-17.7,9.8c0,5.4,5.2,8.3,9.5,8.3c9.3,0,14.2-5.8,14.2-13.4V680.7z M1344,705h-9.1v-8.1h-0.2
	c-2.8,5.8-9.6,9.3-16.7,9.3c-13.2,0-19.1-8.2-19.1-21.9V654h9.4v26.4c0,11.9,2.6,17.7,10.8,18.2c10.7,0,15.5-8.6,15.5-21V654h9.4
	L1344,705L1344,705z M1357.5,695c3.7,2.4,9,3.6,11.7,3.6c4.3,0,9.6-1.8,9.6-7.3c0-9.3-22.1-8.5-22.1-22.8c0-10.6,7.9-15.7,18-15.7
	c4.4,0,8,0.9,11.7,2l-0.8,8.2c-2.1-1.3-7.7-2.6-9.9-2.6c-4.8,0-9,2-9,6.2c0,10.4,22.1,7.4,22.1,23.7c0,10.9-8.7,15.9-17.8,15.9
	c-4.8,0-9.7-0.5-14-2.8L1357.5,695z M1440.1,702.9c-3.6,1.3-7.7,3.3-16.1,3.3c-18.1,0-26.4-11-26.4-27.6c0-15.1,9.5-25.8,23.9-25.8
	c17,0,22.5,12.4,22.5,28.8h-36.4c0,10.1,7.9,17,16.8,17c6.2,0,13.4-3.2,15.7-5.1V702.9z M1434,674.6c0-7.8-4.6-14.2-12.7-14.2
	c-9.2,0-13,7.6-13.7,14.2H1434z M747.4,10c18.8,0,34.1,15.3,34.1,34.1V196c0,18.8-15.3,34.1-34.1,34.1H595.6
	c-18.8,0-34.1-15.3-34.1-34.1V44.1c0-18.8,15.3-34.1,34.1-34.1H747.4 M747.4,0H595.6c-24.4,0-44.1,19.7-44.1,44.1V196
	c0,24.3,19.7,44.1,44.1,44.1h151.9c24.3,0,44.1-19.7,44.1-44.1V44.1C791.5,19.7,771.8,0,747.4,0L747.4,0z M612.7,78.1h17.6l15.6,67
	h0.2l14.3-67h22.8l14.8,67h0.2l15.7-67h16.3l-21.7,83.8h-21.6l-15.1-67h-0.3l-14.9,67h-21.7L612.7,78.1z M467.4,290
	c18.8,0,34.1,15.3,34.1,34.1V476c0,18.8-15.3,34.1-34.1,34.1H315.6c-18.8-0.1-34.1-15.4-34.1-34.2V324.1c0-18.8,15.3-34.1,34.1-34.1
	H467.4 M467.4,280H315.6c-24.4,0-44.1,19.7-44.1,44.1V476c0,24.3,19.7,44,44.1,44h151.9c24.3,0,44.1-19.7,44.1-44.1V324.1
	C511.5,299.7,491.8,280,467.4,280L467.4,280z M381.9,358.1h19l32.9,83.8h-18.6l-7.2-19.2h-34l-7.3,19.2h-17.4L381.9,358.1z
	 M391.1,374.9h-0.2l-12.1,34.6h24.5L391.1,374.9z M747.4,290c18.8,0,34.1,15.3,34.1,34.1V476c0,18.8-15.3,34.1-34.1,34.1H595.6
	c-18.8,0-34.1-15.3-34.1-34.1V324.1c0-18.8,15.3-34.1,34.1-34.1H747.4 M747.4,280H595.6c-24.3,0-44.1,19.7-44.1,44.1V476
	c0,24.3,19.7,44.1,44.1,44.1h151.9c24.3,0,44.1-19.7,44.1-44.1V324.1C791.5,299.7,771.8,280,747.4,280L747.4,280z M692.1,373.5
	c-5.3-2.3-11.2-3.6-17-3.6s-13.2,2.5-13.2,11.6c0,14.5,36.7,8.4,36.7,36.5c0,18.4-14.5,25.3-31.4,25.3c-9.1,0-13.2-1.2-21.5-3.2
	l1.6-15.1c5.8,3.1,12.4,5.2,19,5.2c6.4,0,14.9-3.2,14.9-10.8c0-16-36.7-9.4-36.7-37.1c0-18.7,14.5-25.6,29.3-25.6c7.2,0,13.9,1,20,3
	L692.1,373.5z M1027.4,290c18.8,0,34.1,15.3,34.1,34.1V476c0,18.8-15.3,34.1-34.1,34.1H875.6c-18.8,0-34.1-15.3-34.1-34.1V324.1
	c0-18.8,15.3-34.1,34.1-34.1H1027.4 M1027.4,280H875.6c-24.3,0-44.1,19.7-44.1,44.1V476c0,24.3,19.7,44.1,44.1,44.1h151.9
	c24.3,0,44.1-19.7,44.1-44.1V324.1C1071.5,299.7,1051.8,280,1027.4,280L1027.4,280z M915.9,358.1h22.9c25.7,0,48.4,8.6,48.4,41.9
	c0,33.2-22.7,41.9-48.4,41.9h-22.9V358.1z M932.7,428.7h9.4c14,0,27.6-10.4,27.6-28.7s-13.6-28.7-27.6-28.7h-9.4V428.7z M1396.5,0
	L1396.5,0h-10l0,0c-91.1,0-165,73.9-165,165v10v10v170c0,91.1,73.9,165,165,165h10c91.1,0,165-73.9,165-165V165
	C1561.5,73.9,1487.6,0,1396.5,0z M1231.5,165c0-41.4,16.1-80.3,45.4-109.6c29.3-29.3,68.2-45.4,109.6-45.4l0,0v165h-155V165z
	 M1551.5,355c0,41.4-16.1,80.3-45.4,109.6c-29.3,29.3-68.2,45.4-109.6,45.4h-10c-41.4,0-80.3-16.1-109.6-45.4
	c-29.3-29.3-45.4-68.2-45.4-109.6V185h165V10l0,0c41.4,0,80.3,16.1,109.6,45.4c29.3,29.3,45.4,68.2,45.4,109.6V355z"/>
</svg>
